<svg xmlns="http://www.w3.org/2000/svg" xmlns:xlink="http://www.w3.org/1999/xlink" width="100" zoomAndPan="magnify" viewBox="0 0 75 30.000001" height="40" preserveAspectRatio="xMidYMid meet" version="1.0"><defs><g/></defs><g fill="#000000" fill-opacity="1"><g transform="translate(13.123108, 19.596776)"><g><path d="M 3.140625 -1.515625 C 3.140625 -0.710938 3.117188 0.0390625 3.078125 0.75 C 3.035156 1.46875 2.90625 2.128906 2.6875 2.734375 C 2.46875 3.335938 2.117188 3.878906 1.640625 4.359375 C 1.171875 4.835938 0.507812 5.242188 -0.34375 5.578125 L -0.4375 5.34375 C 0.394531 4.988281 1.03125 4.539062 1.46875 4 C 1.914062 3.457031 2.140625 2.71875 2.140625 1.78125 C 2.140625 1.164062 2.070312 0.5625 1.9375 -0.03125 C 1.8125 -0.632812 1.671875 -1.238281 1.515625 -1.84375 C 1.359375 -2.445312 1.210938 -3.050781 1.078125 -3.65625 C 0.953125 -4.257812 0.890625 -4.875 0.890625 -5.5 C 0.890625 -6.113281 0.96875 -6.707031 1.125 -7.28125 C 0.507812 -7.28125 -0.0078125 -7.175781 -0.4375 -6.96875 C -0.875 -6.757812 -1.3125 -6.453125 -1.75 -6.046875 L -2.015625 -6.109375 C -1.554688 -6.554688 -1.054688 -6.921875 -0.515625 -7.203125 C 0.015625 -7.484375 0.601562 -7.648438 1.25 -7.703125 C 1.8125 -9.535156 2.660156 -10.847656 3.796875 -11.640625 C 4.929688 -12.429688 6.453125 -12.828125 8.359375 -12.828125 L 11.921875 -12.828125 C 11.460938 -12.691406 11.160156 -12.429688 11.015625 -12.046875 C 10.867188 -11.660156 10.796875 -11.257812 10.796875 -10.84375 L 10.796875 -2.140625 C 10.796875 -1.710938 10.863281 -1.285156 11 -0.859375 C 11.132812 -0.441406 11.441406 -0.15625 11.921875 0 L 7.078125 0 C 7.390625 -0.101562 7.628906 -0.273438 7.796875 -0.515625 C 7.960938 -0.765625 8.070312 -1.046875 8.125 -1.359375 C 8.1875 -1.671875 8.21875 -1.992188 8.21875 -2.328125 C 8.21875 -2.660156 8.21875 -2.957031 8.21875 -3.21875 C 8.21875 -3.832031 8.0625 -4.378906 7.75 -4.859375 C 7.4375 -5.335938 7.039062 -5.742188 6.5625 -6.078125 C 6.082031 -6.410156 5.550781 -6.671875 4.96875 -6.859375 C 4.394531 -7.054688 3.847656 -7.160156 3.328125 -7.171875 C 3.222656 -6.703125 3.148438 -6.226562 3.109375 -5.75 C 3.078125 -5.269531 3.0625 -4.785156 3.0625 -4.296875 C 3.0625 -3.835938 3.070312 -3.375 3.09375 -2.90625 C 3.125 -2.4375 3.140625 -1.972656 3.140625 -1.515625 Z M 3.40625 -7.59375 C 4.394531 -7.507812 5.320312 -7.195312 6.1875 -6.65625 C 7.050781 -6.125 7.722656 -5.414062 8.203125 -4.53125 L 8.203125 -11.1875 C 8.203125 -11.53125 8.144531 -11.835938 8.03125 -12.109375 C 7.925781 -12.378906 7.664062 -12.515625 7.25 -12.515625 C 6.675781 -12.515625 6.175781 -12.34375 5.75 -12 C 5.320312 -11.664062 4.945312 -11.25 4.625 -10.75 C 4.3125 -10.25 4.054688 -9.710938 3.859375 -9.140625 C 3.660156 -8.566406 3.507812 -8.050781 3.40625 -7.59375 Z M 3.40625 -7.59375 "/></g></g></g><g fill="#000000" fill-opacity="1"><g transform="translate(25.666106, 19.596776)"><g><path d="M 11.109375 -4.375 C 11.109375 -2.851562 10.753906 -1.722656 10.046875 -0.984375 C 9.335938 -0.242188 8.210938 0.125 6.671875 0.125 C 5.035156 0.125 3.851562 -0.273438 3.125 -1.078125 C 2.40625 -1.878906 2.046875 -3.070312 2.046875 -4.65625 L 2.046875 -10.875 C 2.046875 -11.195312 1.9375 -11.566406 1.71875 -11.984375 C 1.5 -12.410156 1.234375 -12.691406 0.921875 -12.828125 L 5.765625 -12.828125 C 5.410156 -12.691406 5.132812 -12.410156 4.9375 -11.984375 C 4.738281 -11.566406 4.640625 -11.1875 4.640625 -10.84375 L 4.640625 -5.03125 C 4.640625 -4.488281 4.695312 -3.953125 4.8125 -3.421875 C 4.9375 -2.890625 5.132812 -2.410156 5.40625 -1.984375 C 5.675781 -1.566406 6.03125 -1.234375 6.46875 -0.984375 C 6.90625 -0.734375 7.4375 -0.609375 8.0625 -0.609375 C 8.582031 -0.609375 9.023438 -0.71875 9.390625 -0.9375 C 9.765625 -1.164062 10.0625 -1.457031 10.28125 -1.8125 C 10.507812 -2.175781 10.671875 -2.582031 10.765625 -3.03125 C 10.867188 -3.488281 10.921875 -3.945312 10.921875 -4.40625 L 10.921875 -9.453125 C 10.921875 -10.179688 10.960938 -11.015625 11.046875 -11.953125 C 11.140625 -12.890625 11.34375 -13.765625 11.65625 -14.578125 C 11.96875 -15.398438 12.414062 -16.09375 13 -16.65625 C 13.582031 -17.21875 14.375 -17.5 15.375 -17.5 C 15.664062 -17.5 15.957031 -17.472656 16.25 -17.421875 C 16.539062 -17.367188 16.832031 -17.296875 17.125 -17.203125 L 17.078125 -17.078125 C 17.003906 -17.085938 16.929688 -17.09375 16.859375 -17.09375 C 16.796875 -17.09375 16.726562 -17.09375 16.65625 -17.09375 C 15.601562 -17.09375 14.722656 -16.816406 14.015625 -16.265625 C 13.316406 -15.722656 12.75 -15.03125 12.3125 -14.1875 C 11.875 -13.351562 11.5625 -12.445312 11.375 -11.46875 C 11.195312 -10.488281 11.109375 -9.570312 11.109375 -8.71875 Z M 11.109375 -4.375 "/></g></g></g><g fill="#000000" fill-opacity="1"><g transform="translate(37.97343, 19.596776)"><g><path d="M 19.203125 2.296875 C 18.078125 3.328125 16.753906 3.84375 15.234375 3.84375 C 14.296875 3.84375 13.507812 3.625 12.875 3.1875 C 12.25 2.757812 11.703125 2.210938 11.234375 1.546875 C 10.765625 0.878906 10.335938 0.164062 9.953125 -0.59375 C 9.566406 -1.351562 9.148438 -2.0625 8.703125 -2.71875 C 8.265625 -3.382812 7.753906 -3.9375 7.171875 -4.375 C 6.597656 -4.8125 5.890625 -5.03125 5.046875 -5.03125 L 4.609375 -5.03125 L 4.609375 -4.5 L 4.640625 -3.40625 L 4.640625 -2.875 C 4.640625 -2.613281 4.640625 -2.335938 4.640625 -2.046875 C 4.640625 -1.765625 4.671875 -1.484375 4.734375 -1.203125 C 4.804688 -0.921875 4.914062 -0.675781 5.0625 -0.46875 C 5.21875 -0.257812 5.453125 -0.101562 5.765625 0 L 0.921875 0 C 1.160156 -0.0703125 1.347656 -0.1875 1.484375 -0.34375 C 1.628906 -0.5 1.742188 -0.671875 1.828125 -0.859375 C 1.921875 -1.054688 1.976562 -1.265625 2 -1.484375 C 2.03125 -1.710938 2.046875 -1.929688 2.046875 -2.140625 L 2.046875 -10.84375 C 2.046875 -11.238281 1.96875 -11.632812 1.8125 -12.03125 C 1.664062 -12.425781 1.367188 -12.691406 0.921875 -12.828125 L 5.65625 -12.828125 C 6.28125 -12.828125 6.898438 -12.757812 7.515625 -12.625 C 8.140625 -12.5 8.707031 -12.28125 9.21875 -11.96875 C 9.726562 -11.664062 10.140625 -11.265625 10.453125 -10.765625 C 10.765625 -10.273438 10.921875 -9.664062 10.921875 -8.9375 C 10.921875 -8.269531 10.78125 -7.691406 10.5 -7.203125 C 10.21875 -6.710938 9.84375 -6.3125 9.375 -6 C 8.914062 -5.6875 8.398438 -5.445312 7.828125 -5.28125 C 7.253906 -5.125 6.671875 -5.046875 6.078125 -5.046875 C 6.753906 -4.984375 7.390625 -4.738281 7.984375 -4.3125 C 8.578125 -3.894531 9.148438 -3.394531 9.703125 -2.8125 C 10.265625 -2.226562 10.816406 -1.601562 11.359375 -0.9375 C 11.898438 -0.28125 12.453125 0.328125 13.015625 0.890625 C 13.585938 1.453125 14.191406 1.914062 14.828125 2.28125 C 15.472656 2.644531 16.160156 2.828125 16.890625 2.828125 C 17.273438 2.828125 17.660156 2.757812 18.046875 2.625 C 18.429688 2.5 18.785156 2.335938 19.109375 2.140625 Z M 4.609375 -5.234375 L 5.234375 -5.234375 C 5.796875 -5.234375 6.28125 -5.328125 6.6875 -5.515625 C 7.101562 -5.710938 7.441406 -5.976562 7.703125 -6.3125 C 7.960938 -6.644531 8.148438 -7.03125 8.265625 -7.46875 C 8.390625 -7.914062 8.453125 -8.40625 8.453125 -8.9375 C 8.453125 -10.03125 8.210938 -10.914062 7.734375 -11.59375 C 7.253906 -12.28125 6.421875 -12.625 5.234375 -12.625 L 4.609375 -12.625 Z M 4.609375 -5.234375 "/></g></g></g><g fill="#000000" fill-opacity="1"><g transform="translate(49.311885, 19.596776)"><g><path d="M 3.140625 -1.515625 C 3.140625 -0.710938 3.117188 0.0390625 3.078125 0.75 C 3.035156 1.46875 2.90625 2.128906 2.6875 2.734375 C 2.46875 3.335938 2.117188 3.878906 1.640625 4.359375 C 1.171875 4.835938 0.507812 5.242188 -0.34375 5.578125 L -0.4375 5.34375 C 0.394531 4.988281 1.03125 4.539062 1.46875 4 C 1.914062 3.457031 2.140625 2.71875 2.140625 1.78125 C 2.140625 1.164062 2.070312 0.5625 1.9375 -0.03125 C 1.8125 -0.632812 1.671875 -1.238281 1.515625 -1.84375 C 1.359375 -2.445312 1.210938 -3.050781 1.078125 -3.65625 C 0.953125 -4.257812 0.890625 -4.875 0.890625 -5.5 C 0.890625 -6.113281 0.96875 -6.707031 1.125 -7.28125 C 0.507812 -7.28125 -0.0078125 -7.175781 -0.4375 -6.96875 C -0.875 -6.757812 -1.3125 -6.453125 -1.75 -6.046875 L -2.015625 -6.109375 C -1.554688 -6.554688 -1.054688 -6.921875 -0.515625 -7.203125 C 0.015625 -7.484375 0.601562 -7.648438 1.25 -7.703125 C 1.8125 -9.535156 2.660156 -10.847656 3.796875 -11.640625 C 4.929688 -12.429688 6.453125 -12.828125 8.359375 -12.828125 L 11.921875 -12.828125 C 11.460938 -12.691406 11.160156 -12.429688 11.015625 -12.046875 C 10.867188 -11.660156 10.796875 -11.257812 10.796875 -10.84375 L 10.796875 -2.140625 C 10.796875 -1.710938 10.863281 -1.285156 11 -0.859375 C 11.132812 -0.441406 11.441406 -0.15625 11.921875 0 L 7.078125 0 C 7.390625 -0.101562 7.628906 -0.273438 7.796875 -0.515625 C 7.960938 -0.765625 8.070312 -1.046875 8.125 -1.359375 C 8.1875 -1.671875 8.21875 -1.992188 8.21875 -2.328125 C 8.21875 -2.660156 8.21875 -2.957031 8.21875 -3.21875 C 8.21875 -3.832031 8.0625 -4.378906 7.75 -4.859375 C 7.4375 -5.335938 7.039062 -5.742188 6.5625 -6.078125 C 6.082031 -6.410156 5.550781 -6.671875 4.96875 -6.859375 C 4.394531 -7.054688 3.847656 -7.160156 3.328125 -7.171875 C 3.222656 -6.703125 3.148438 -6.226562 3.109375 -5.75 C 3.078125 -5.269531 3.0625 -4.785156 3.0625 -4.296875 C 3.0625 -3.835938 3.070312 -3.375 3.09375 -2.90625 C 3.125 -2.4375 3.140625 -1.972656 3.140625 -1.515625 Z M 3.40625 -7.59375 C 4.394531 -7.507812 5.320312 -7.195312 6.1875 -6.65625 C 7.050781 -6.125 7.722656 -5.414062 8.203125 -4.53125 L 8.203125 -11.1875 C 8.203125 -11.53125 8.144531 -11.835938 8.03125 -12.109375 C 7.925781 -12.378906 7.664062 -12.515625 7.25 -12.515625 C 6.675781 -12.515625 6.175781 -12.34375 5.75 -12 C 5.320312 -11.664062 4.945312 -11.25 4.625 -10.75 C 4.3125 -10.25 4.054688 -9.710938 3.859375 -9.140625 C 3.660156 -8.566406 3.507812 -8.050781 3.40625 -7.59375 Z M 3.40625 -7.59375 "/></g></g></g></svg>